<svg version="1.1" id="Layer_1" xmlns="http://www.w3.org/2000/svg" xmlns:xlink="http://www.w3.org/1999/xlink" x="0px" y="0px"
	 width="100%" viewBox="0 0 800 400" enable-background="new 0 0 800 400" xml:space="preserve">
<path fill="#FFFEFE" opacity="1.000000" stroke="none" 
	d="
M491.000000,401.000000 
	C327.333344,401.000000 164.166672,401.000000 1.000000,401.000000 
	C1.000000,267.666656 1.000000,134.333328 1.000000,1.000000 
	C267.666656,1.000000 534.333313,1.000000 801.000000,1.000000 
	C801.000000,134.333328 801.000000,267.666656 801.000000,401.000000 
	C697.833313,401.000000 594.666687,401.000000 491.000000,401.000000 
M34.947159,222.135757 
	C31.336113,223.934723 26.794861,224.907120 24.308397,227.705353 
	C19.191820,233.463531 19.829742,240.884399 22.422178,247.534286 
	C24.937449,253.986191 30.739796,255.921463 37.503475,255.916168 
	C123.786896,255.848846 210.070374,255.871933 296.353851,255.870468 
	C297.519653,255.870438 298.693909,255.937103 299.849884,255.824890 
	C306.014832,255.226410 311.175415,251.315933 312.424408,245.358780 
	C315.265259,231.809402 310.273285,221.958221 295.205048,222.003082 
	C208.755768,222.260513 122.305344,222.128784 34.947159,222.135757 
M62.714813,120.212143 
	C60.693474,122.196411 58.598629,124.111755 56.662834,126.176239 
	C44.925289,138.694061 38.075111,153.234436 38.442356,170.707626 
	C38.673462,181.703720 44.994198,187.851471 56.086910,187.852615 
	C130.076294,187.860229 204.065689,187.861115 278.055084,187.851562 
	C288.876099,187.850174 295.224243,181.800034 295.538208,171.061859 
	C295.799683,162.119629 294.225159,153.498032 290.379883,145.363174 
	C280.439178,124.333138 263.010101,111.386040 242.641495,101.954239 
	C206.622604,85.275475 168.795929,83.156578 130.280807,89.695297 
	C105.482124,93.905373 82.686363,103.238869 62.714813,120.212143 
M243.500000,263.996582 
	C193.207611,263.996582 142.915222,263.996521 92.622833,263.996613 
	C79.966476,263.996643 67.309669,263.931824 54.653938,264.020905 
	C46.522430,264.078156 40.291969,269.154816 38.890007,276.583435 
	C34.815178,298.174866 49.447292,316.000000 71.265327,316.001678 
	C134.713623,316.006592 198.161926,316.003601 261.610229,316.003296 
	C283.291077,316.003174 296.696014,301.843842 295.529633,280.176605 
	C294.981384,269.992096 288.756195,264.048340 278.472290,264.007050 
	C267.148376,263.961578 255.824112,263.996613 243.500000,263.996582 
M269.233337,200.270752 
	C257.897430,192.982559 245.848755,192.860214 235.574203,199.928925 
	C221.370117,209.701111 214.847000,209.730194 200.208832,200.086502 
	C188.767914,192.549179 176.305511,192.890594 165.366959,201.041000 
	C154.720474,208.973785 144.940826,209.233841 134.078903,201.873077 
	C119.408821,191.931610 109.916733,192.006653 95.180260,202.180542 
	C85.739494,208.698334 75.889343,208.820709 66.322922,202.519394 
	C64.655396,201.420990 63.064205,200.204712 61.379097,199.135315 
	C51.524498,192.881485 38.392578,193.345566 28.989162,200.263046 
	C26.634697,201.995071 24.042343,203.917694 26.364235,207.147949 
	C28.540070,210.175003 31.079994,209.004150 33.701187,207.156525 
	C41.257030,201.830597 49.088161,201.482056 57.019314,206.445435 
	C59.133324,207.768387 61.228855,209.121948 63.363922,210.410004 
	C75.657784,217.826706 87.784431,216.998184 99.471504,209.196930 
	C111.685570,201.043930 116.846718,200.776550 129.053482,208.510864 
	C144.284363,218.161270 155.754242,217.907150 170.537170,207.495941 
	C178.247818,202.065582 186.112091,201.310577 194.279480,206.393738 
	C196.396759,207.711502 198.509872,209.036026 200.632629,210.344910 
	C212.691818,217.780609 225.111603,217.585892 236.202148,209.425278 
	C247.171097,201.354156 257.045013,201.217834 267.566681,209.214066 
	C268.488831,209.914856 269.525482,210.473511 270.539856,211.043137 
	C282.705170,217.874786 294.483032,216.621368 305.695374,208.937912 
	C307.091309,207.981277 308.425415,204.852753 307.868378,203.554077 
	C306.646393,200.705200 303.888275,200.493561 301.157196,202.287216 
	C290.339844,209.391647 279.889526,208.661209 269.233337,200.270752 
M647.450073,130.932816 
	C644.510925,130.932816 641.571716,130.932816 638.184692,130.932816 
	C638.184692,143.194153 638.184692,154.884460 638.184692,168.010406 
	C636.605896,165.625610 635.811768,164.457199 635.048828,163.268768 
	C628.762695,153.476898 622.522888,143.654739 616.149292,133.920181 
	C615.345581,132.692734 613.916992,131.192535 612.658081,131.072083 
	C608.775940,130.700699 604.835693,130.936600 600.963623,130.936600 
	C600.963623,151.302353 600.963623,171.043732 600.963623,190.726624 
	C605.500671,190.726624 609.763977,190.726624 614.533447,190.726624 
	C614.533447,178.770172 614.533447,167.086288 614.533447,154.160019 
	C616.205139,156.600906 617.162720,157.927277 618.046448,159.301086 
	C624.252075,168.947418 630.411011,178.624084 636.680298,188.228760 
	C637.409302,189.345535 638.668152,190.780884 639.775330,190.867416 
	C643.827271,191.184097 647.918884,190.992783 652.038574,190.992783 
	C652.038574,171.621689 651.966309,152.972061 652.111755,134.324112 
	C652.135254,131.313370 651.061096,130.521255 647.450073,130.932816 
M355.558563,170.763870 
	C360.703369,185.930557 373.778900,194.113266 389.188232,191.809418 
	C403.864227,189.615204 414.566895,176.848114 414.769196,161.294235 
	C414.947418,147.588562 406.135651,134.992386 393.672180,131.136765 
	C380.782257,127.149208 367.181061,131.905914 359.470367,143.246033 
	C353.880615,151.466949 353.075104,160.518723 355.558563,170.763870 
M550.147217,219.382492 
	C556.935364,218.270172 561.899658,221.481079 566.120850,226.638153 
	C569.178711,223.317337 571.946167,220.311905 574.793518,217.219681 
	C573.955933,216.220078 573.494263,215.531036 572.902100,214.983017 
	C563.676575,206.445450 552.827820,204.551041 541.406494,208.827118 
	C528.834106,213.534103 523.012939,223.727707 522.512817,236.796570 
	C522.026306,249.509781 527.330139,259.641357 538.552795,265.733124 
	C549.153503,271.487274 559.850342,270.178101 569.603455,263.236786 
	C579.629883,256.100952 580.408875,245.699265 579.096741,234.530212 
	C569.996338,234.530212 561.089661,234.530212 552.019104,234.530212 
	C552.019104,238.045303 552.019104,241.295227 552.019104,244.911407 
	C556.507874,244.911407 560.783630,244.911407 565.136475,244.911407 
	C565.623352,249.944412 563.028198,252.874359 559.307312,254.767075 
	C554.565002,257.179382 549.597595,257.303040 545.105774,254.120239 
	C538.796082,249.649384 536.542664,243.132324 537.349731,235.742432 
	C538.175476,228.182144 541.486389,222.076706 550.147217,219.382492 
M542.189819,178.183685 
	C533.636658,180.851181 527.285217,178.398911 523.289795,170.886444 
	C518.747803,162.346283 520.854187,150.428604 528.283325,145.124420 
	C530.572754,143.489853 534.040955,141.858826 536.469055,142.414093 
	C541.297424,143.518250 545.778564,146.141098 551.041870,148.412033 
	C552.937439,146.324905 555.688416,143.295807 559.244873,139.379868 
	C554.801086,136.624512 551.189453,133.615448 547.038574,131.951218 
	C532.820312,126.250648 517.876587,131.561356 510.367065,144.506454 
	C502.462189,158.133041 505.799622,176.240997 518.014709,186.000412 
	C527.639771,193.690521 541.367676,194.179413 552.040894,187.212280 
	C561.660950,180.932571 565.618835,169.546814 562.405579,157.645111 
	C553.485535,157.645111 544.607666,157.645111 535.778320,157.645111 
	C535.778320,161.278915 535.778320,164.516891 535.778320,168.088043 
	C540.385559,168.088043 544.652039,168.088043 548.997437,168.088043 
	C549.257629,173.057861 546.550171,175.764343 542.189819,178.183685 
M505.998260,253.485367 
	C503.253540,250.174545 500.508850,246.863708 497.609009,243.365753 
	C498.753754,242.758987 499.633148,242.318253 500.488739,241.835403 
	C507.567078,237.840652 510.852325,230.671906 509.421936,222.363419 
	C508.092621,214.642059 502.971252,209.089584 494.683624,208.379059 
	C486.165405,207.648773 477.535889,208.217026 468.955383,208.217026 
	C468.955383,228.276367 468.955383,248.028290 468.955383,267.730316 
	C473.486481,267.730316 477.752136,267.730316 482.328308,267.730316 
	C482.328308,260.223267 482.328308,252.985107 482.328308,244.373993 
	C488.264008,251.992340 493.400574,258.617584 498.585297,265.204987 
	C499.377167,266.211090 500.355835,267.784882 501.309052,267.830780 
	C506.628998,268.087067 511.967712,267.953918 518.034973,267.953918 
	C513.691284,262.733307 510.071594,258.382812 505.998260,253.485367 
M356.925659,209.657944 
	C356.925659,229.039383 356.925659,248.420837 356.925659,267.945801 
	C365.659454,267.945801 373.800507,268.223206 381.915405,267.880432 
	C393.939270,267.372620 400.665009,259.187683 399.016571,247.726532 
	C398.062225,241.091003 393.444183,237.967392 387.462769,236.020142 
	C397.827820,228.035141 395.502594,211.383041 384.451141,209.514999 
	C375.505249,208.002884 366.156921,208.871552 356.925659,209.657944 
M440.730530,169.706909 
	C445.503937,175.900513 450.222778,182.137650 455.098450,188.249680 
	C456.032593,189.420700 457.539642,190.796768 458.858551,190.880630 
	C463.763489,191.192627 468.700226,191.005081 474.550171,191.005081 
	C467.389709,182.369141 460.802094,174.424072 454.095154,166.335068 
	C455.187286,165.767929 455.928833,165.403992 456.650818,165.004684 
	C464.048279,160.913376 467.211914,154.182861 465.957916,145.219772 
	C464.953674,138.041611 459.697693,132.222061 451.566101,131.467316 
	C442.894348,130.662415 434.089996,131.286087 425.344574,131.286087 
	C425.344574,151.260681 425.344574,170.983383 425.344574,190.629791 
	C429.996857,190.629791 434.372467,190.629791 438.879486,190.629791 
	C438.879486,183.768845 438.846191,177.285172 438.938599,170.803268 
	C438.946564,170.244598 439.786987,169.697784 440.730530,169.706909 
M650.612122,252.628082 
	C650.612122,250.403183 650.612122,248.178268 650.612122,245.953369 
	C656.706360,252.235870 661.706299,258.782227 666.852478,265.211548 
	C667.793518,266.387329 669.284424,267.794830 670.599670,267.879425 
	C675.512695,268.195312 680.458252,268.005676 686.282532,268.005676 
	C679.142456,259.378754 672.562134,251.428055 665.829590,243.293442 
	C666.975525,242.724564 667.727295,242.385834 668.446899,241.988678 
	C675.601379,238.040268 679.017334,230.993286 677.817505,222.681732 
	C676.737732,215.202454 671.882568,209.428513 663.766968,208.602188 
	C654.955933,207.705048 645.982910,208.398727 637.205322,208.398727 
	C637.205322,228.309738 637.205322,248.040283 637.205322,267.746399 
	C641.743286,267.746399 645.989685,267.746399 650.612061,267.746399 
	C650.612061,262.860474 650.612061,258.227448 650.612122,252.628082 
M415.653931,263.892059 
	C422.951141,269.599762 431.304993,269.985352 439.866241,268.297363 
	C449.285583,266.440186 455.118378,260.938446 455.593018,251.485901 
	C456.315582,237.096191 455.782227,222.643417 455.782227,208.141296 
	C451.274841,208.141296 447.018005,208.141296 442.280334,208.141296 
	C442.280334,210.137238 442.287811,211.924866 442.279083,213.712418 
	C442.226318,224.535400 442.352173,235.363541 442.046143,246.179428 
	C441.862885,252.657227 438.755646,255.495026 432.830841,255.609528 
	C426.712189,255.727798 423.438080,252.723984 423.065491,246.147903 
	C422.783264,241.166611 422.921936,236.160370 422.909973,231.165146 
	C422.891754,223.552277 422.905243,215.939331 422.905243,208.256287 
	C418.060089,208.256287 413.685791,208.256287 409.153839,208.256287 
	C409.153839,222.051697 408.633057,235.549576 409.427368,248.969635 
	C409.717834,253.877243 413.130005,258.600098 415.653931,263.892059 
M707.956604,191.005554 
	C711.861389,191.005554 715.766174,191.005554 720.151367,191.005554 
	C711.912170,170.589798 703.921265,150.789154 695.975098,131.099304 
	C691.514038,131.099304 687.387512,131.099304 683.138245,131.099304 
	C675.106140,151.006271 667.114929,170.811874 659.016663,190.882843 
	C664.110535,190.882843 668.742065,190.882843 673.599304,190.882843 
	C675.139832,186.935135 676.681152,182.985336 678.168701,179.173538 
	C685.961304,179.173538 693.407898,179.173538 701.046326,179.173538 
	C701.816223,181.281235 702.366516,183.394531 703.340881,185.289810 
	C704.375061,187.301559 705.811768,189.106369 707.956604,191.005554 
M590.073120,260.426819 
	C590.073120,262.862610 590.073120,265.298401 590.073120,267.667908 
	C601.848999,267.667908 613.060669,267.667908 624.164673,267.667908 
	C624.164673,263.597992 624.164673,259.880188 624.164673,255.771973 
	C617.203430,255.771973 610.606934,255.771973 604.195679,255.771973 
	C604.195679,251.621017 604.195679,247.875580 604.195679,243.784241 
	C610.766479,243.784241 617.029114,243.784241 623.429688,243.784241 
	C623.429688,239.682510 623.429688,235.950714 623.429688,231.858185 
	C616.874207,231.858185 610.602844,231.858185 604.111206,231.858185 
	C604.111206,227.770050 604.111206,224.045349 604.111206,219.915894 
	C610.907227,219.915894 617.491760,219.915894 624.279053,219.915894 
	C624.279053,215.757187 624.279053,212.004349 624.279053,208.238098 
	C612.790833,208.238098 601.560181,208.238098 590.073120,208.238098 
	C590.073120,225.513916 590.073120,242.480103 590.073120,260.426819 
M740.045410,131.190369 
	C735.778992,131.190369 731.512634,131.190369 727.130859,131.190369 
	C727.130859,151.148697 727.130859,170.888046 727.130859,190.714783 
	C738.572693,190.714783 749.799683,190.714783 760.879150,190.714783 
	C760.879150,186.677063 760.879150,182.937500 760.879150,178.831772 
	C753.970032,178.831772 747.364075,178.831772 740.544800,178.831772 
	C740.544800,162.954498 740.544800,147.465286 740.045410,131.190369 
M481.911072,164.499969 
	C481.911072,173.253189 481.911072,182.006424 481.911072,190.776871 
	C486.711670,190.776871 490.959167,190.776871 495.394226,190.776871 
	C495.394226,170.813461 495.394226,151.088470 495.394226,131.254669 
	C490.791748,131.254669 486.426147,131.254669 481.911072,131.254669 
	C481.911072,142.224915 481.911072,152.862442 481.911072,164.499969 
M587.222961,150.500381 
	C587.222961,144.070816 587.222961,137.641235 587.222961,131.224777 
	C582.403198,131.224777 578.156555,131.224777 573.987366,131.224777 
	C573.987366,151.245697 573.987366,170.979965 573.987366,190.719711 
	C578.525146,190.719711 582.774048,190.719711 587.222961,190.719711 
	C587.222961,177.460968 587.222961,164.480591 587.222961,150.500381 
z"/>
<path fill="#FF2323" opacity="1.000000" stroke="none" 
	d="
M35.401230,222.132416 
	C122.305344,222.128784 208.755768,222.260513 295.205048,222.003082 
	C310.273285,221.958221 315.265259,231.809402 312.424408,245.358780 
	C311.175415,251.315933 306.014832,255.226410 299.849884,255.824890 
	C298.693909,255.937103 297.519653,255.870438 296.353851,255.870468 
	C210.070374,255.871933 123.786896,255.848846 37.503475,255.916168 
	C30.739796,255.921463 24.937449,253.986191 22.422178,247.534286 
	C19.829742,240.884399 19.191820,233.463531 24.308397,227.705353 
	C26.794861,224.907120 31.336113,223.934723 35.401230,222.132416 
M226.499847,247.443802 
	C249.983353,247.443680 273.466888,247.463272 296.950317,247.429535 
	C302.817413,247.421112 304.708466,245.481384 304.819855,239.700592 
	C304.961823,232.331665 303.252838,230.567307 295.850372,230.566833 
	C209.910690,230.561249 123.971001,230.562958 38.031315,230.566498 
	C36.866814,230.566544 35.411705,230.181274 34.596027,230.727814 
	C32.673916,232.015610 30.085278,233.454544 29.485941,235.370346 
	C27.022911,243.243515 30.418705,247.441544 38.631004,247.441986 
	C100.920616,247.445297 163.210236,247.443954 226.499847,247.443802 
z"/>
<path fill="#FF1E1E" opacity="1.000000" stroke="none" 
	d="
M62.998215,119.999313 
	C82.686363,103.238869 105.482124,93.905373 130.280807,89.695297 
	C168.795929,83.156578 206.622604,85.275475 242.641495,101.954239 
	C263.010101,111.386040 280.439178,124.333138 290.379883,145.363174 
	C294.225159,153.498032 295.799683,162.119629 295.538208,171.061859 
	C295.224243,181.800034 288.876099,187.850174 278.055084,187.851562 
	C204.065689,187.861115 130.076294,187.860229 56.086910,187.852615 
	C44.994198,187.851471 38.673462,181.703720 38.442356,170.707626 
	C38.075111,153.234436 44.925289,138.694061 56.662834,126.176239 
	C58.598629,124.111755 60.693474,122.196411 62.998215,119.999313 
M230.499847,179.450851 
	C246.153275,179.450806 261.806732,179.467316 277.460114,179.443634 
	C285.114532,179.432053 287.015228,177.352753 287.174713,169.588654 
	C287.383148,159.439026 284.481384,150.218887 279.054718,141.776611 
	C269.161255,126.385284 254.790771,116.366257 238.439407,109.079254 
	C204.554092,93.978218 169.155289,91.305267 132.955231,97.568268 
	C110.232361,101.499565 88.956444,109.376442 70.877060,124.181908 
	C56.865231,135.656403 46.973484,149.610428 46.857319,168.695419 
	C46.802322,177.730347 48.545811,179.448990 57.645481,179.449432 
	C114.930267,179.452164 172.215042,179.450974 230.499847,179.450851 
z"/>
<path fill="#FF1818" opacity="1.000000" stroke="none" 
	d="
M244.000000,263.996582 
	C255.824112,263.996613 267.148376,263.961578 278.472290,264.007050 
	C288.756195,264.048340 294.981384,269.992096 295.529633,280.176605 
	C296.696014,301.843842 283.291077,316.003174 261.610229,316.003296 
	C198.161926,316.003601 134.713623,316.006592 71.265327,316.001678 
	C49.447292,316.000000 34.815178,298.174866 38.890007,276.583435 
	C40.291969,269.154816 46.522430,264.078156 54.653938,264.020905 
	C67.309669,263.931824 79.966476,263.996643 92.622833,263.996613 
	C142.915222,263.996521 193.207611,263.996582 244.000000,263.996582 
M259.499939,272.160431 
	C192.556198,272.160431 125.612442,272.160400 58.668697,272.160553 
	C57.336487,272.160553 56.000031,272.094574 54.672825,272.176788 
	C49.687664,272.485565 47.089840,275.112061 46.837162,280.027344 
	C45.912102,298.022247 55.232986,307.839417 73.244614,307.839478 
	C135.692169,307.839722 198.139725,307.839661 260.587280,307.839539 
	C278.582397,307.839508 287.673096,298.553589 287.165619,280.691223 
	C287.000854,274.890686 284.401978,272.266815 278.484436,272.180237 
	C272.490753,272.092529 266.494781,272.160614 259.499939,272.160431 
z"/>
<path fill="#FF1D1D" opacity="1.000000" stroke="none" 
	d="
M269.523254,200.493927 
	C279.889526,208.661209 290.339844,209.391647 301.157196,202.287216 
	C303.888275,200.493561 306.646393,200.705200 307.868378,203.554077 
	C308.425415,204.852753 307.091309,207.981277 305.695374,208.937912 
	C294.483032,216.621368 282.705170,217.874786 270.539856,211.043137 
	C269.525482,210.473511 268.488831,209.914856 267.566681,209.214066 
	C257.045013,201.217834 247.171097,201.354156 236.202148,209.425278 
	C225.111603,217.585892 212.691818,217.780609 200.632629,210.344910 
	C198.509872,209.036026 196.396759,207.711502 194.279480,206.393738 
	C186.112091,201.310577 178.247818,202.065582 170.537170,207.495941 
	C155.754242,217.907150 144.284363,218.161270 129.053482,208.510864 
	C116.846718,200.776550 111.685570,201.043930 99.471504,209.196930 
	C87.784431,216.998184 75.657784,217.826706 63.363922,210.410004 
	C61.228855,209.121948 59.133324,207.768387 57.019314,206.445435 
	C49.088161,201.482056 41.257030,201.830597 33.701187,207.156525 
	C31.079994,209.004150 28.540070,210.175003 26.364235,207.147949 
	C24.042343,203.917694 26.634697,201.995071 28.989162,200.263046 
	C38.392578,193.345566 51.524498,192.881485 61.379097,199.135315 
	C63.064205,200.204712 64.655396,201.420990 66.322922,202.519394 
	C75.889343,208.820709 85.739494,208.698334 95.180260,202.180542 
	C109.916733,192.006653 119.408821,191.931610 134.078903,201.873077 
	C144.940826,209.233841 154.720474,208.973785 165.366959,201.041000 
	C176.305511,192.890594 188.767914,192.549179 200.208832,200.086502 
	C214.847000,209.730194 221.370117,209.701111 235.574203,199.928925 
	C245.848755,192.860214 257.897430,192.982559 269.523254,200.493927 
z"/>
<path fill="#030303" opacity="1.000000" stroke="none" 
	d="
M647.930420,130.932831 
	C651.061096,130.521255 652.135254,131.313370 652.111755,134.324112 
	C651.966309,152.972061 652.038574,171.621689 652.038574,190.992783 
	C647.918884,190.992783 643.827271,191.184097 639.775330,190.867416 
	C638.668152,190.780884 637.409302,189.345535 636.680298,188.228760 
	C630.411011,178.624084 624.252075,168.947418 618.046448,159.301086 
	C617.162720,157.927277 616.205139,156.600906 614.533447,154.160019 
	C614.533447,167.086288 614.533447,178.770172 614.533447,190.726624 
	C609.763977,190.726624 605.500671,190.726624 600.963623,190.726624 
	C600.963623,171.043732 600.963623,151.302353 600.963623,130.936600 
	C604.835693,130.936600 608.775940,130.700699 612.658081,131.072083 
	C613.916992,131.192535 615.345581,132.692734 616.149292,133.920181 
	C622.522888,143.654739 628.762695,153.476898 635.048828,163.268768 
	C635.811768,164.457199 636.605896,165.625610 638.184692,168.010406 
	C638.184692,154.884460 638.184692,143.194153 638.184692,130.932816 
	C641.571716,130.932816 644.510925,130.932816 647.930420,130.932831 
z"/>
<path fill="#050505" opacity="1.000000" stroke="none" 
	d="
M355.409363,170.383286 
	C353.075104,160.518723 353.880615,151.466949 359.470367,143.246033 
	C367.181061,131.905914 380.782257,127.149208 393.672180,131.136765 
	C406.135651,134.992386 414.947418,147.588562 414.769196,161.294235 
	C414.566895,176.848114 403.864227,189.615204 389.188232,191.809418 
	C373.778900,194.113266 360.703369,185.930557 355.409363,170.383286 
M369.425049,156.316452 
	C369.325378,158.968475 368.925079,161.650146 369.183350,164.266846 
	C369.905640,171.586182 373.906982,176.506683 380.130829,178.208923 
	C392.312683,181.540710 401.932526,171.417175 399.739899,157.573151 
	C398.366577,148.902039 393.179260,143.499374 385.781464,143.035294 
	C377.461853,142.513367 372.417694,146.429993 369.425049,156.316452 
z"/>
<path fill="#060606" opacity="1.000000" stroke="none" 
	d="
M549.773010,219.499268 
	C541.486389,222.076706 538.175476,228.182144 537.349731,235.742432 
	C536.542664,243.132324 538.796082,249.649384 545.105774,254.120239 
	C549.597595,257.303040 554.565002,257.179382 559.307312,254.767075 
	C563.028198,252.874359 565.623352,249.944412 565.136475,244.911407 
	C560.783630,244.911407 556.507874,244.911407 552.019104,244.911407 
	C552.019104,241.295227 552.019104,238.045303 552.019104,234.530212 
	C561.089661,234.530212 569.996338,234.530212 579.096741,234.530212 
	C580.408875,245.699265 579.629883,256.100952 569.603455,263.236786 
	C559.850342,270.178101 549.153503,271.487274 538.552795,265.733124 
	C527.330139,259.641357 522.026306,249.509781 522.512817,236.796570 
	C523.012939,223.727707 528.834106,213.534103 541.406494,208.827118 
	C552.827820,204.551041 563.676575,206.445450 572.902100,214.983017 
	C573.494263,215.531036 573.955933,216.220078 574.793518,217.219681 
	C571.946167,220.311905 569.178711,223.317337 566.120850,226.638153 
	C561.899658,221.481079 556.935364,218.270172 549.773010,219.499268 
z"/>
<path fill="#060606" opacity="1.000000" stroke="none" 
	d="
M542.568665,178.045898 
	C546.550171,175.764343 549.257629,173.057861 548.997437,168.088043 
	C544.652039,168.088043 540.385559,168.088043 535.778320,168.088043 
	C535.778320,164.516891 535.778320,161.278915 535.778320,157.645111 
	C544.607666,157.645111 553.485535,157.645111 562.405579,157.645111 
	C565.618835,169.546814 561.660950,180.932571 552.040894,187.212280 
	C541.367676,194.179413 527.639771,193.690521 518.014709,186.000412 
	C505.799622,176.240997 502.462189,158.133041 510.367065,144.506454 
	C517.876587,131.561356 532.820312,126.250648 547.038574,131.951218 
	C551.189453,133.615448 554.801086,136.624512 559.244873,139.379868 
	C555.688416,143.295807 552.937439,146.324905 551.041870,148.412033 
	C545.778564,146.141098 541.297424,143.518250 536.469055,142.414093 
	C534.040955,141.858826 530.572754,143.489853 528.283325,145.124420 
	C520.854187,150.428604 518.747803,162.346283 523.289795,170.886444 
	C527.285217,178.398911 533.636658,180.851181 542.568665,178.045898 
z"/>
<path fill="#030303" opacity="1.000000" stroke="none" 
	d="
M506.225037,253.758820 
	C510.071594,258.382812 513.691284,262.733307 518.034973,267.953918 
	C511.967712,267.953918 506.628998,268.087067 501.309052,267.830780 
	C500.355835,267.784882 499.377167,266.211090 498.585297,265.204987 
	C493.400574,258.617584 488.264008,251.992340 482.328308,244.373993 
	C482.328308,252.985107 482.328308,260.223267 482.328308,267.730316 
	C477.752136,267.730316 473.486481,267.730316 468.955383,267.730316 
	C468.955383,248.028290 468.955383,228.276367 468.955383,208.217026 
	C477.535889,208.217026 486.165405,207.648773 494.683624,208.379059 
	C502.971252,209.089584 508.092621,214.642059 509.421936,222.363419 
	C510.852325,230.671906 507.567078,237.840652 500.488739,241.835403 
	C499.633148,242.318253 498.753754,242.758987 497.609009,243.365753 
	C500.508850,246.863708 503.253540,250.174545 506.225037,253.758820 
M492.107971,220.170486 
	C488.962555,219.624466 485.817139,219.078461 482.481018,218.499344 
	C482.481018,224.379990 482.481018,229.289124 482.481018,234.445343 
	C486.894257,234.568832 491.385040,235.294083 493.976257,231.152771 
	C496.153656,227.672836 495.948792,223.842331 492.107971,220.170486 
z"/>
<path fill="#040404" opacity="1.000000" stroke="none" 
	d="
M356.956390,209.171066 
	C366.156921,208.871552 375.505249,208.002884 384.451141,209.514999 
	C395.502594,211.383041 397.827820,228.035141 387.462769,236.020142 
	C393.444183,237.967392 398.062225,241.091003 399.016571,247.726532 
	C400.665009,259.187683 393.939270,267.372620 381.915405,267.880432 
	C373.800507,268.223206 365.659454,267.945801 356.925659,267.945801 
	C356.925659,248.420837 356.925659,229.039383 356.956390,209.171066 
M370.586731,252.546722 
	C370.586731,254.109634 370.586731,255.672531 370.586731,257.473480 
	C375.849426,257.066071 381.105103,258.646606 383.885284,253.792511 
	C384.936981,251.956345 384.778229,248.196991 383.539062,246.520996 
	C380.450745,242.344040 375.555298,243.018860 370.586700,243.440933 
	C370.586700,246.324753 370.586700,248.936829 370.586731,252.546722 
M380.822510,224.590668 
	C380.062897,218.580536 375.595886,218.707031 370.874054,218.484192 
	C370.874054,222.814743 370.874054,226.871460 370.874054,231.200195 
	C375.600311,231.371140 379.791626,231.173492 380.822510,224.590668 
z"/>
<path fill="#050505" opacity="1.000000" stroke="none" 
	d="
M440.485626,169.426178 
	C439.786987,169.697784 438.946564,170.244598 438.938599,170.803268 
	C438.846191,177.285172 438.879486,183.768845 438.879486,190.629791 
	C434.372467,190.629791 429.996857,190.629791 425.344574,190.629791 
	C425.344574,170.983383 425.344574,151.260681 425.344574,131.286087 
	C434.089996,131.286087 442.894348,130.662415 451.566101,131.467316 
	C459.697693,132.222061 464.953674,138.041611 465.957916,145.219772 
	C467.211914,154.182861 464.048279,160.913376 456.650818,165.004684 
	C455.928833,165.403992 455.187286,165.767929 454.095154,166.335068 
	C460.802094,174.424072 467.389709,182.369141 474.550171,191.005081 
	C468.700226,191.005081 463.763489,191.192627 458.858551,190.880630 
	C457.539642,190.796768 456.032593,189.420700 455.098450,188.249680 
	C450.222778,182.137650 445.503937,175.900513 440.485626,169.426178 
M438.859375,145.599487 
	C438.859375,149.515778 438.859375,153.432083 438.859375,157.438919 
	C440.931702,157.438919 442.405975,157.580963 443.844482,157.414246 
	C449.960999,156.705353 452.817444,153.131836 451.616241,147.823608 
	C450.623901,143.438141 444.861847,140.409897 440.125214,141.998016 
	C439.481262,142.213913 439.270905,143.722931 438.859375,145.599487 
z"/>
<path fill="#050505" opacity="1.000000" stroke="none" 
	d="
M650.612061,253.111237 
	C650.612061,258.227448 650.612061,262.860474 650.612061,267.746399 
	C645.989685,267.746399 641.743286,267.746399 637.205322,267.746399 
	C637.205322,248.040283 637.205322,228.309738 637.205322,208.398727 
	C645.982910,208.398727 654.955933,207.705048 663.766968,208.602188 
	C671.882568,209.428513 676.737732,215.202454 677.817505,222.681732 
	C679.017334,230.993286 675.601379,238.040268 668.446899,241.988678 
	C667.727295,242.385834 666.975525,242.724564 665.829590,243.293442 
	C672.562134,251.428055 679.142456,259.378754 686.282532,268.005676 
	C680.458252,268.005676 675.512695,268.195312 670.599670,267.879425 
	C669.284424,267.794830 667.793518,266.387329 666.852478,265.211548 
	C661.706299,258.782227 656.706360,252.235870 650.612122,245.953369 
	C650.612122,248.178268 650.612122,250.403183 650.612061,253.111237 
M650.583984,227.386246 
	C650.583984,229.658142 650.583984,231.930038 650.583984,234.480652 
	C655.335876,234.469147 660.242676,235.389359 662.354919,230.678894 
	C663.444763,228.248489 663.239624,224.162491 661.846680,221.931625 
	C659.419922,218.045197 654.908630,218.616928 650.584106,219.263794 
	C650.584106,221.866623 650.584106,224.166061 650.583984,227.386246 
z"/>
<path fill="#060606" opacity="1.000000" stroke="none" 
	d="
M415.385986,263.649658 
	C413.130005,258.600098 409.717834,253.877243 409.427368,248.969635 
	C408.633057,235.549576 409.153839,222.051697 409.153839,208.256287 
	C413.685791,208.256287 418.060089,208.256287 422.905243,208.256287 
	C422.905243,215.939331 422.891754,223.552277 422.909973,231.165146 
	C422.921936,236.160370 422.783264,241.166611 423.065491,246.147903 
	C423.438080,252.723984 426.712189,255.727798 432.830841,255.609528 
	C438.755646,255.495026 441.862885,252.657227 442.046143,246.179428 
	C442.352173,235.363541 442.226318,224.535400 442.279083,213.712418 
	C442.287811,211.924866 442.280334,210.137238 442.280334,208.141296 
	C447.018005,208.141296 451.274841,208.141296 455.782227,208.141296 
	C455.782227,222.643417 456.315582,237.096191 455.593018,251.485901 
	C455.118378,260.938446 449.285583,266.440186 439.866241,268.297363 
	C431.304993,269.985352 422.951141,269.599762 415.385986,263.649658 
z"/>
<path fill="#040404" opacity="1.000000" stroke="none" 
	d="
M707.514648,191.003555 
	C705.811768,189.106369 704.375061,187.301559 703.340881,185.289810 
	C702.366516,183.394531 701.816223,181.281235 701.046326,179.173538 
	C693.407898,179.173538 685.961304,179.173538 678.168701,179.173538 
	C676.681152,182.985336 675.139832,186.935135 673.599304,190.882843 
	C668.742065,190.882843 664.110535,190.882843 659.016663,190.882843 
	C667.114929,170.811874 675.106140,151.006271 683.138245,131.099304 
	C687.387512,131.099304 691.514038,131.099304 695.975098,131.099304 
	C703.921265,150.789154 711.912170,170.589798 720.151367,191.005554 
	C715.766174,191.005554 711.861389,191.005554 707.514648,191.003555 
M685.050354,166.989059 
	C688.632935,166.989059 692.215515,166.989059 696.367310,166.989059 
	C694.052673,160.977280 691.944885,155.502808 689.562744,149.315842 
	C687.308289,155.131302 685.319397,160.171967 683.447205,165.255615 
	C683.291016,165.679688 683.921631,166.393524 685.050354,166.989059 
z"/>
<path fill="#060606" opacity="1.000000" stroke="none" 
	d="
M590.073120,259.936554 
	C590.073120,242.480103 590.073120,225.513916 590.073120,208.238098 
	C601.560181,208.238098 612.790833,208.238098 624.279053,208.238098 
	C624.279053,212.004349 624.279053,215.757187 624.279053,219.915894 
	C617.491760,219.915894 610.907227,219.915894 604.111206,219.915894 
	C604.111206,224.045349 604.111206,227.770050 604.111206,231.858185 
	C610.602844,231.858185 616.874207,231.858185 623.429688,231.858185 
	C623.429688,235.950714 623.429688,239.682510 623.429688,243.784241 
	C617.029114,243.784241 610.766479,243.784241 604.195679,243.784241 
	C604.195679,247.875580 604.195679,251.621017 604.195679,255.771973 
	C610.606934,255.771973 617.203430,255.771973 624.164673,255.771973 
	C624.164673,259.880188 624.164673,263.597992 624.164673,267.667908 
	C613.060669,267.667908 601.848999,267.667908 590.073120,267.667908 
	C590.073120,265.298401 590.073120,262.862610 590.073120,259.936554 
z"/>
<path fill="#050505" opacity="1.000000" stroke="none" 
	d="
M740.295105,131.583221 
	C740.544800,147.465286 740.544800,162.954498 740.544800,178.831772 
	C747.364075,178.831772 753.970032,178.831772 760.879150,178.831772 
	C760.879150,182.937500 760.879150,186.677063 760.879150,190.714783 
	C749.799683,190.714783 738.572693,190.714783 727.130859,190.714783 
	C727.130859,170.888046 727.130859,151.148697 727.130859,131.190369 
	C731.512634,131.190369 735.778992,131.190369 740.295105,131.583221 
z"/>
<path fill="#080808" opacity="1.000000" stroke="none" 
	d="
M481.911072,163.999969 
	C481.911072,152.862442 481.911072,142.224915 481.911072,131.254669 
	C486.426147,131.254669 490.791748,131.254669 495.394226,131.254669 
	C495.394226,151.088470 495.394226,170.813461 495.394226,190.776871 
	C490.959167,190.776871 486.711670,190.776871 481.911072,190.776871 
	C481.911072,182.006424 481.911072,173.253189 481.911072,163.999969 
z"/>
<path fill="#000000" opacity="1.000000" stroke="none" 
	d="
M587.222961,151.000305 
	C587.222961,164.480591 587.222961,177.460968 587.222961,190.719711 
	C582.774048,190.719711 578.525146,190.719711 573.987366,190.719711 
	C573.987366,170.979965 573.987366,151.245697 573.987366,131.224777 
	C578.156555,131.224777 582.403198,131.224777 587.222961,131.224777 
	C587.222961,137.641235 587.222961,144.070816 587.222961,151.000305 
z"/>
<path fill="#FFF8F8" opacity="1.000000" stroke="none" 
	d="
M225.999847,247.443939 
	C163.210236,247.443954 100.920616,247.445297 38.631004,247.441986 
	C30.418705,247.441544 27.022911,243.243515 29.485941,235.370346 
	C30.085278,233.454544 32.673916,232.015610 34.596027,230.727814 
	C35.411705,230.181274 36.866814,230.566544 38.031315,230.566498 
	C123.971001,230.562958 209.910690,230.561249 295.850372,230.566833 
	C303.252838,230.567307 304.961823,232.331665 304.819855,239.700592 
	C304.708466,245.481384 302.817413,247.421112 296.950317,247.429535 
	C273.466888,247.463272 249.983353,247.443680 225.999847,247.443939 
z"/>
<path fill="#FFFDFD" opacity="1.000000" stroke="none" 
	d="
M229.999847,179.450958 
	C172.215042,179.450974 114.930267,179.452164 57.645481,179.449432 
	C48.545811,179.448990 46.802322,177.730347 46.857319,168.695419 
	C46.973484,149.610428 56.865231,135.656403 70.877060,124.181908 
	C88.956444,109.376442 110.232361,101.499565 132.955231,97.568268 
	C169.155289,91.305267 204.554092,93.978218 238.439407,109.079254 
	C254.790771,116.366257 269.161255,126.385284 279.054718,141.776611 
	C284.481384,150.218887 287.383148,159.439026 287.174713,169.588654 
	C287.015228,177.352753 285.114532,179.432053 277.460114,179.443634 
	C261.806732,179.467316 246.153275,179.450806 229.999847,179.450958 
M105.770393,122.471336 
	C104.253677,121.077675 102.736969,119.684013 101.220261,118.290359 
	C100.093498,119.518570 98.208382,120.660530 98.056099,121.999557 
	C97.907761,123.303894 99.846436,126.112778 100.323662,125.997833 
	C102.211906,125.543030 103.886230,124.200127 105.770393,122.471336 
M225.145050,159.237045 
	C226.796310,158.367767 229.217865,157.861465 229.853134,156.513397 
	C230.354080,155.450363 229.019547,152.925369 227.793106,151.876617 
	C227.094299,151.279068 223.732071,152.264252 223.707565,152.666870 
	C223.579971,154.763718 224.139297,156.902390 225.145050,159.237045 
M78.380394,157.046555 
	C80.159828,156.934418 82.146431,157.252258 83.634445,156.535309 
	C84.420898,156.156357 85.040550,153.286102 84.509483,152.745865 
	C83.241844,151.456375 80.977341,149.860718 79.599182,150.223984 
	C76.365593,151.076324 76.306252,153.776031 78.380394,157.046555 
M201.082611,107.974075 
	C199.397141,108.853661 197.195389,109.372017 196.228302,110.754234 
	C195.686127,111.529198 196.769226,114.402290 197.888443,115.103424 
	C198.968002,115.779701 201.584045,115.464371 202.556854,114.552139 
	C204.722702,112.521149 204.069397,110.132431 201.082611,107.974075 
M158.231003,105.518913 
	C157.964844,103.491402 158.027191,101.313995 157.215591,99.535378 
	C156.996078,99.054283 153.578751,99.207153 152.636093,100.114761 
	C151.705048,101.011223 151.365250,104.273468 151.965317,104.666389 
	C153.509308,105.677406 155.717285,105.674393 158.231003,105.518913 
M237.785172,120.169266 
	C235.860992,120.863411 233.665527,121.224609 232.169189,122.443840 
	C231.686996,122.836746 232.610275,125.979324 233.702820,126.946548 
	C234.533508,127.681923 237.834290,127.324844 237.983948,126.831436 
	C238.563919,124.919205 238.322830,122.757950 237.785172,120.169266 
M139.887131,133.137558 
	C139.235504,133.634506 137.987045,134.197601 138.033539,134.617172 
	C138.258194,136.644455 138.831207,138.633148 139.280701,140.635529 
	C141.104553,139.994507 144.007111,139.830353 144.542282,138.619659 
	C145.935913,135.467010 144.432358,133.184982 139.887131,133.137558 
z"/>
<path fill="#FFFCFC" opacity="1.000000" stroke="none" 
	d="
M259.999878,272.160461 
	C266.494781,272.160614 272.490753,272.092529 278.484436,272.180237 
	C284.401978,272.266815 287.000854,274.890686 287.165619,280.691223 
	C287.673096,298.553589 278.582397,307.839508 260.587280,307.839539 
	C198.139725,307.839661 135.692169,307.839722 73.244614,307.839478 
	C55.232986,307.839417 45.912102,298.022247 46.837162,280.027344 
	C47.089840,275.112061 49.687664,272.485565 54.672825,272.176788 
	C56.000031,272.094574 57.336487,272.160553 58.668697,272.160553 
	C125.612442,272.160400 192.556198,272.160431 259.999878,272.160461 
z"/>
<path fill="#FCFCFC" opacity="1.000000" stroke="none" 
	d="
M369.559265,155.921783 
	C372.417694,146.429993 377.461853,142.513367 385.781464,143.035294 
	C393.179260,143.499374 398.366577,148.902039 399.739899,157.573151 
	C401.932526,171.417175 392.312683,181.540710 380.130829,178.208923 
	C373.906982,176.506683 369.905640,171.586182 369.183350,164.266846 
	C368.925079,161.650146 369.325378,158.968475 369.559265,155.921783 
z"/>
<path fill="#F3F3F3" opacity="1.000000" stroke="none" 
	d="
M492.434326,220.420441 
	C495.948792,223.842331 496.153656,227.672836 493.976257,231.152771 
	C491.385040,235.294083 486.894257,234.568832 482.481018,234.445343 
	C482.481018,229.289124 482.481018,224.379990 482.481018,218.499344 
	C485.817139,219.078461 488.962555,219.624466 492.434326,220.420441 
z"/>
<path fill="#F8F8F8" opacity="1.000000" stroke="none" 
	d="
M370.586731,252.047821 
	C370.586700,248.936829 370.586700,246.324753 370.586700,243.440933 
	C375.555298,243.018860 380.450745,242.344040 383.539062,246.520996 
	C384.778229,248.196991 384.936981,251.956345 383.885284,253.792511 
	C381.105103,258.646606 375.849426,257.066071 370.586731,257.473480 
	C370.586731,255.672531 370.586731,254.109634 370.586731,252.047821 
z"/>
<path fill="#F6F6F6" opacity="1.000000" stroke="none" 
	d="
M380.802582,224.980637 
	C379.791626,231.173492 375.600311,231.371140 370.874054,231.200195 
	C370.874054,226.871460 370.874054,222.814743 370.874054,218.484192 
	C375.595886,218.707031 380.062897,218.580536 380.802582,224.980637 
z"/>
<path fill="#F7F7F7" opacity="1.000000" stroke="none" 
	d="
M438.859558,145.116348 
	C439.270905,143.722931 439.481262,142.213913 440.125214,141.998016 
	C444.861847,140.409897 450.623901,143.438141 451.616241,147.823608 
	C452.817444,153.131836 449.960999,156.705353 443.844482,157.414246 
	C442.405975,157.580963 440.931702,157.438919 438.859375,157.438919 
	C438.859375,153.432083 438.859375,149.515778 438.859558,145.116348 
z"/>
<path fill="#F8F8F8" opacity="1.000000" stroke="none" 
	d="
M650.584045,226.925873 
	C650.584106,224.166061 650.584106,221.866623 650.584106,219.263794 
	C654.908630,218.616928 659.419922,218.045197 661.846680,221.931625 
	C663.239624,224.162491 663.444763,228.248489 662.354919,230.678894 
	C660.242676,235.389359 655.335876,234.469147 650.583984,234.480652 
	C650.583984,231.930038 650.583984,229.658142 650.584045,226.925873 
z"/>
<path fill="#F4F4F4" opacity="1.000000" stroke="none" 
	d="
M684.618530,166.980896 
	C683.921631,166.393524 683.291016,165.679688 683.447205,165.255615 
	C685.319397,160.171967 687.308289,155.131302 689.562744,149.315842 
	C691.944885,155.502808 694.052673,160.977280 696.367310,166.989059 
	C692.215515,166.989059 688.632935,166.989059 684.618530,166.980896 
z"/>
<path fill="#FF2929" opacity="1.000000" stroke="none" 
	d="
M105.705139,122.828926 
	C103.886230,124.200127 102.211906,125.543030 100.323662,125.997833 
	C99.846436,126.112778 97.907761,123.303894 98.056099,121.999557 
	C98.208382,120.660530 100.093498,119.518570 101.220261,118.290359 
	C102.736969,119.684013 104.253677,121.077675 105.705139,122.828926 
z"/>
<path fill="#FF2626" opacity="1.000000" stroke="none" 
	d="
M224.802277,159.131775 
	C224.139297,156.902390 223.579971,154.763718 223.707565,152.666870 
	C223.732071,152.264252 227.094299,151.279068 227.793106,151.876617 
	C229.019547,152.925369 230.354080,155.450363 229.853134,156.513397 
	C229.217865,157.861465 226.796310,158.367767 224.802277,159.131775 
z"/>
<path fill="#FF2424" opacity="1.000000" stroke="none" 
	d="
M78.098907,156.768448 
	C76.306252,153.776031 76.365593,151.076324 79.599182,150.223984 
	C80.977341,149.860718 83.241844,151.456375 84.509483,152.745865 
	C85.040550,153.286102 84.420898,156.156357 83.634445,156.535309 
	C82.146431,157.252258 80.159828,156.934418 78.098907,156.768448 
z"/>
<path fill="#FF2525" opacity="1.000000" stroke="none" 
	d="
M201.458832,108.108818 
	C204.069397,110.132431 204.722702,112.521149 202.556854,114.552139 
	C201.584045,115.464371 198.968002,115.779701 197.888443,115.103424 
	C196.769226,114.402290 195.686127,111.529198 196.228302,110.754234 
	C197.195389,109.372017 199.397141,108.853661 201.458832,108.108818 
z"/>
<path fill="#FF2525" opacity="1.000000" stroke="none" 
	d="
M157.945465,105.797745 
	C155.717285,105.674393 153.509308,105.677406 151.965317,104.666389 
	C151.365250,104.273468 151.705048,101.011223 152.636093,100.114761 
	C153.578751,99.207153 156.996078,99.054283 157.215591,99.535378 
	C158.027191,101.313995 157.964844,103.491402 157.945465,105.797745 
z"/>
<path fill="#FF2626" opacity="1.000000" stroke="none" 
	d="
M238.086319,120.429344 
	C238.322830,122.757950 238.563919,124.919205 237.983948,126.831436 
	C237.834290,127.324844 234.533508,127.681923 233.702820,126.946548 
	C232.610275,125.979324 231.686996,122.836746 232.169189,122.443840 
	C233.665527,121.224609 235.860992,120.863411 238.086319,120.429344 
z"/>
<path fill="#FF2121" opacity="1.000000" stroke="none" 
	d="
M140.276764,133.069199 
	C144.432358,133.184982 145.935913,135.467010 144.542282,138.619659 
	C144.007111,139.830353 141.104553,139.994507 139.280701,140.635529 
	C138.831207,138.633148 138.258194,136.644455 138.033539,134.617172 
	C137.987045,134.197601 139.235504,133.634506 140.276764,133.069199 
z"/>
</svg>